
IMDB Link - http://www.imdb.com/title/tt0770828/

Source - Man.Of.Steel.2013.FULL.ViDEO.ENG.AUDiO.CAMRip-0HKAY (Thumbs Up + Respect)

NOTES - Enjoy. This is our V2 of this CAM, we hope the different filters have helped this look a bit better than our V1 release.  This far smoother in my opinion.

General
Complete name                            : Man Of Steel 2013 V2 CAM AAC x264-SSDD.mp4
Format                                   : MPEG-4
Format profile                           : Base Media
Codec ID                                 : isom
File size                                : 550 MiB
Duration                                 : 2h 12mn
Overall bit rate mode                    : Variable
Overall bit rate                         : 579 Kbps

Video
ID                                       : 1
Format                                   : AVC
Format/Info                              : Advanced Video Codec
Format profile                           : High@L4.1
Format settings, CABAC                   : Yes
Format settings, ReFrames                : 4 frames
Codec ID                                 : avc1
Codec ID/Info                            : Advanced Video Coding
Duration                                 : 2h 12mn
Bit rate                                 : 511 Kbps
Maximum bit rate                         : 1 231 Kbps
Width                                    : 682 pixels
Height                                   : 288 pixels
Display aspect ratio                     : 2.35:1
Frame rate mode                          : Constant
Frame rate                               : 29.970 fps
Color space                              : YUV
Chroma subsampling                       : 4:2:0
Bit depth                                : 8 bits
Scan type                                : Progressive
Bits/(Pixel*Frame)                       : 0.087
Stream size                              : 485 MiB (88%)
Writing library                          : x264 core 133 r2334 a3ac64b

Audio
ID                                       : 2
Format                                   : AAC
Format/Info                              : Advanced Audio Codec
Format profile                           : LC
Codec ID                                 : 40
Duration                                 : 2h 12mn
Bit rate mode                            : Variable
Bit rate                                 : 64.0 Kbps
Maximum bit rate                         : 67.2 Kbps
Channel(s)                               : 2 channels
Channel positions                        : Front: L R
Sampling rate                            : 48.0 KHz
Compression mode                         : Lossy
Stream size                              : 60.7 MiB (11%)


 
http://someimage.com/mKuL